<svg viewBoxSize="575" data-root-id="7974396368848" xmlns="http://www.w3.org/2000/svg" xmlns:xlink="http://www.w3.org/1999/xlink" version="1.1" id="Layer_1" x="89.99999999999999" y="217.0486827216501" viewBox="31.600000381469727 31.400001525878906 110.20000457763672 109.79999542236328" xml:space="preserve" height="140.90263455669978" width="141.41621620066715" preserveAspectRatio="xMinYMin" zoom="1" editorType="buyer" data-layer-role="icon" style="position: absolute; height: 140.903px; width: 141.416px; top: 217.049px; left: 90px; transform: rotate(0deg);"><radialGradient id="SVGID_1_" cx="90.23" cy="31.32" r="107.01" gradientUnits="userSpaceOnUse" name="Layer %{number}" zoom="1" data-layer-id="8629008368848"><stop offset="0" style="stop-color: rgb(255, 255, 217); --darkreader-inline-stopcolor: var(--darkreader-text-ffffd9, #ffffb1);" data-darkreader-inline-stopcolor=""></stop><stop offset="7.000000e-02" style="stop-color: rgb(255, 255, 207); --darkreader-inline-stopcolor: var(--darkreader-text-ffffcf, #ffffaa);" data-darkreader-inline-stopcolor=""></stop><stop offset="0.41" style="stop-color: rgb(255, 222, 120); --darkreader-inline-stopcolor: var(--darkreader-text-ffde78, #ffdb6e);" data-darkreader-inline-stopcolor=""></stop><stop offset="0.58" style="stop-color: rgb(204, 161, 69); --darkreader-inline-stopcolor: var(--darkreader-text-cca145, #d0a955);" data-darkreader-inline-stopcolor=""></stop><stop offset="0.77" style="stop-color: rgb(120, 71, 13); --darkreader-inline-stopcolor: var(--darkreader-text-78470d, #f1bc7d);" data-darkreader-inline-stopcolor=""></stop><stop offset="1" style="stop-color: rgb(214, 171, 79); --darkreader-inline-stopcolor: var(--darkreader-text-d6ab4f, #d9b05a);" data-darkreader-inline-stopcolor=""></stop></radialGradient><path class="st0" d="M75,140L75,140l54.6-54.6h-25.5l6.9-6.9h30.3V82v0v29.3l-29.9,29.9H86.6C82.6,141.2,78.7,140.8,75,140z   M31.6,86.3c0-30.3,24.6-54.9,54.9-54.9c0,0,0,0,0,0h55.3l-30.5,30.5H86.6c-12.3,0-22.3,10-22.3,22.3s10,22.3,22.3,22.3h12.3  l-6.9,6.9h-5.4c-16.1,0-29.2-13.1-29.2-29.2s13.1-29.2,29.2-29.2h22l16.8-16.7H86.6c-26.5,0-48.1,21.5-48.1,48.1  c0,21.8,14.5,40.2,34.4,46.1l-5.4,5.4l0,0.1C46.5,130,31.6,109.9,31.6,86.3z M90.3,134.3l18.2,0l25.9-25.9V90.3L90.3,134.3z" name="Layer %{number}" zoom="1" data-layer-id="5494093868848" style="fill-rule: evenodd; clip-rule: evenodd; fill: url(&quot;#SVGID_1_&quot;);"></path></svg>